<svg id="visual" viewBox="0 0 900 600" width="900" height="600" xmlns="http://www.w3.org/2000/svg" xmlns:xlink="http://www.w3.org/1999/xlink" version="1.1"><rect x="0" y="0" width="900" height="600" fill="#FFFFFF"></rect><defs><linearGradient id="grad1_0" x1="33.3%" y1="0%" x2="100%" y2="100%"><stop offset="20%" stop-color="#ffffff" stop-opacity="1"></stop><stop offset="80%" stop-color="#ffffff" stop-opacity="1"></stop></linearGradient></defs><defs><linearGradient id="grad2_0" x1="0%" y1="0%" x2="66.7%" y2="100%"><stop offset="20%" stop-color="#ffffff" stop-opacity="1"></stop><stop offset="80%" stop-color="#ffffff" stop-opacity="1"></stop></linearGradient></defs><g transform="translate(900, 0)"><path d="M0 289C-32.9 273.5 -65.8 258 -102.6 247.6C-139.3 237.2 -179.8 232 -210.3 210.3C-240.9 188.7 -261.4 150.7 -272.5 112.9C-283.7 75.1 -285.3 37.6 -287 0L0 0Z" fill="#130f40"></path></g><g transform="translate(0, 600)"><path d="M0 -297.5C40.7 -294.6 81.4 -291.7 113.3 -273.5C145.1 -255.2 168.2 -221.5 192.3 -192.3C216.5 -163.1 241.7 -138.5 258.7 -107.2C275.6 -75.8 284.3 -37.9 293 0L0 0Z" fill="#130f40"></path></g></svg>