<svg id="visual" viewBox="0 0 900 600" width="900" height="600" xmlns="http://www.w3.org/2000/svg" xmlns:xlink="http://www.w3.org/1999/xlink" version="1.1"><path d="M0 61L18.8 77C37.7 93 75.3 125 112.8 161C150.3 197 187.7 237 225.2 236C262.7 235 300.3 193 337.8 183C375.3 173 412.7 195 450.2 212C487.7 229 525.3 241 562.8 237C600.3 233 637.7 213 675.2 189C712.7 165 750.3 137 787.8 120C825.3 103 862.7 97 881.3 94L900 91L900 0L881.3 0C862.7 0 825.3 0 787.8 0C750.3 0 712.7 0 675.2 0C637.7 0 600.3 0 562.8 0C525.3 0 487.7 0 450.2 0C412.7 0 375.3 0 337.8 0C300.3 0 262.7 0 225.2 0C187.7 0 150.3 0 112.8 0C75.3 0 37.7 0 18.8 0L0 0Z" fill="#dcdde1"></path><path d="M0 151L18.8 168C37.7 185 75.3 219 112.8 248C150.3 277 187.7 301 225.2 287C262.7 273 300.3 221 337.8 215C375.3 209 412.7 249 450.2 279C487.7 309 525.3 329 562.8 331C600.3 333 637.7 317 675.2 294C712.7 271 750.3 241 787.8 215C825.3 189 862.7 167 881.3 156L900 145L900 89L881.3 92C862.7 95 825.3 101 787.8 118C750.3 135 712.7 163 675.2 187C637.7 211 600.3 231 562.8 235C525.3 239 487.7 227 450.2 210C412.7 193 375.3 171 337.8 181C300.3 191 262.7 233 225.2 234C187.7 235 150.3 195 112.8 159C75.3 123 37.7 91 18.8 75L0 59Z" fill="#e5e6ea"></path><path d="M0 181L18.8 206C37.7 231 75.3 281 112.8 307C150.3 333 187.7 335 225.2 320C262.7 305 300.3 273 337.8 269C375.3 265 412.7 289 450.2 314C487.7 339 525.3 365 562.8 371C600.3 377 637.7 363 675.2 343C712.7 323 750.3 297 787.8 276C825.3 255 862.7 239 881.3 231L900 223L900 143L881.3 154C862.7 165 825.3 187 787.8 213C750.3 239 712.7 269 675.2 292C637.7 315 600.3 331 562.8 329C525.3 327 487.7 307 450.2 277C412.7 247 375.3 207 337.8 213C300.3 219 262.7 271 225.2 285C187.7 299 150.3 275 112.8 246C75.3 217 37.7 183 18.8 166L0 149Z" fill="#eeeff3"></path><path d="M0 301L18.8 317C37.7 333 75.3 365 112.8 380C150.3 395 187.7 393 225.2 381C262.7 369 300.3 347 337.8 342C375.3 337 412.7 349 450.2 370C487.7 391 525.3 421 562.8 423C600.3 425 637.7 399 675.2 385C712.7 371 750.3 369 787.8 357C825.3 345 862.7 323 881.3 312L900 301L900 221L881.3 229C862.7 237 825.3 253 787.8 274C750.3 295 712.7 321 675.2 341C637.7 361 600.3 375 562.8 369C525.3 363 487.7 337 450.2 312C412.7 287 375.3 263 337.8 267C300.3 271 262.7 303 225.2 318C187.7 333 150.3 331 112.8 305C75.3 279 37.7 229 18.8 204L0 179Z" fill="#f5f6fa"></path><path d="M0 367L18.8 378C37.7 389 75.3 411 112.8 418C150.3 425 187.7 417 225.2 410C262.7 403 300.3 397 337.8 392C375.3 387 412.7 383 450.2 397C487.7 411 525.3 443 562.8 451C600.3 459 637.7 443 675.2 428C712.7 413 750.3 399 787.8 388C825.3 377 862.7 369 881.3 365L900 361L900 299L881.3 310C862.7 321 825.3 343 787.8 355C750.3 367 712.7 369 675.2 383C637.7 397 600.3 423 562.8 421C525.3 419 487.7 389 450.2 368C412.7 347 375.3 335 337.8 340C300.3 345 262.7 367 225.2 379C187.7 391 150.3 393 112.8 378C75.3 363 37.7 331 18.8 315L0 299Z" fill="#f5f6fa"></path><path d="M0 547L18.8 537C37.7 527 75.3 507 112.8 494C150.3 481 187.7 475 225.2 477C262.7 479 300.3 489 337.8 494C375.3 499 412.7 499 450.2 504C487.7 509 525.3 519 562.8 524C600.3 529 637.7 529 675.2 528C712.7 527 750.3 525 787.8 517C825.3 509 862.7 495 881.3 488L900 481L900 359L881.3 363C862.7 367 825.3 375 787.8 386C750.3 397 712.7 411 675.2 426C637.7 441 600.3 457 562.8 449C525.3 441 487.7 409 450.2 395C412.7 381 375.3 385 337.8 390C300.3 395 262.7 401 225.2 408C187.7 415 150.3 423 112.8 416C75.3 409 37.7 387 18.8 376L0 365Z" fill="#eeeff3"></path><path d="M0 571L18.8 563C37.7 555 75.3 539 112.8 531C150.3 523 187.7 523 225.2 528C262.7 533 300.3 543 337.8 544C375.3 545 412.7 537 450.2 541C487.7 545 525.3 561 562.8 568C600.3 575 637.7 573 675.2 574C712.7 575 750.3 579 787.8 573C825.3 567 862.7 551 881.3 543L900 535L900 479L881.3 486C862.7 493 825.3 507 787.8 515C750.3 523 712.7 525 675.2 526C637.7 527 600.3 527 562.8 522C525.3 517 487.7 507 450.2 502C412.7 497 375.3 497 337.8 492C300.3 487 262.7 477 225.2 475C187.7 473 150.3 479 112.8 492C75.3 505 37.7 525 18.8 535L0 545Z" fill="#e5e6ea"></path><path d="M0 601L18.8 601C37.7 601 75.3 601 112.8 601C150.3 601 187.7 601 225.2 601C262.7 601 300.3 601 337.8 601C375.3 601 412.7 601 450.2 601C487.7 601 525.3 601 562.8 601C600.3 601 637.7 601 675.2 601C712.7 601 750.3 601 787.8 601C825.3 601 862.7 601 881.3 601L900 601L900 533L881.3 541C862.7 549 825.3 565 787.8 571C750.3 577 712.7 573 675.2 572C637.7 571 600.3 573 562.8 566C525.3 559 487.7 543 450.2 539C412.7 535 375.3 543 337.8 542C300.3 541 262.7 531 225.2 526C187.7 521 150.3 521 112.8 529C75.3 537 37.7 553 18.8 561L0 569Z" fill="#dcdde1"></path></svg>