<svg id="visual" viewBox="0 0 900 600" width="900" height="600" xmlns="http://www.w3.org/2000/svg" xmlns:xlink="http://www.w3.org/1999/xlink" version="1.1"><path d="M0 151L18.8 161C37.7 171 75.3 191 112.8 201C150.3 211 187.7 211 225.2 190C262.7 169 300.3 127 337.8 112C375.3 97 412.7 109 450.2 123C487.7 137 525.3 153 562.8 144C600.3 135 637.7 101 675.2 89C712.7 77 750.3 87 787.8 97C825.3 107 862.7 117 881.3 122L900 127L900 0L881.3 0C862.7 0 825.3 0 787.8 0C750.3 0 712.7 0 675.2 0C637.7 0 600.3 0 562.8 0C525.3 0 487.7 0 450.2 0C412.7 0 375.3 0 337.8 0C300.3 0 262.7 0 225.2 0C187.7 0 150.3 0 112.8 0C75.3 0 37.7 0 18.8 0L0 0Z" fill="#dfe2ef"></path><path d="M0 199L18.8 207C37.7 215 75.3 231 112.8 256C150.3 281 187.7 315 225.2 314C262.7 313 300.3 277 337.8 253C375.3 229 412.7 217 450.2 231C487.7 245 525.3 285 562.8 291C600.3 297 637.7 269 675.2 250C712.7 231 750.3 221 787.8 231C825.3 241 862.7 271 881.3 286L900 301L900 125L881.3 120C862.7 115 825.3 105 787.8 95C750.3 85 712.7 75 675.2 87C637.7 99 600.3 133 562.8 142C525.3 151 487.7 135 450.2 121C412.7 107 375.3 95 337.8 110C300.3 125 262.7 167 225.2 188C187.7 209 150.3 209 112.8 199C75.3 189 37.7 169 18.8 159L0 149Z" fill="#eff0f7"></path><path d="M0 247L18.8 257C37.7 267 75.3 287 112.8 310C150.3 333 187.7 359 225.2 357C262.7 355 300.3 325 337.8 301C375.3 277 412.7 259 450.2 272C487.7 285 525.3 329 562.8 338C600.3 347 637.7 321 675.2 299C712.7 277 750.3 259 787.8 265C825.3 271 862.7 301 881.3 316L900 331L900 299L881.3 284C862.7 269 825.3 239 787.8 229C750.3 219 712.7 229 675.2 248C637.7 267 600.3 295 562.8 289C525.3 283 487.7 243 450.2 229C412.7 215 375.3 227 337.8 251C300.3 275 262.7 311 225.2 312C187.7 313 150.3 279 112.8 254C75.3 229 37.7 213 18.8 205L0 197Z" fill="#f6f7fb"></path><path d="M0 331L18.8 338C37.7 345 75.3 359 112.8 373C150.3 387 187.7 401 225.2 402C262.7 403 300.3 391 337.8 374C375.3 357 412.7 335 450.2 344C487.7 353 525.3 393 562.8 407C600.3 421 637.7 409 675.2 397C712.7 385 750.3 373 787.8 377C825.3 381 862.7 401 881.3 411L900 421L900 329L881.3 314C862.7 299 825.3 269 787.8 263C750.3 257 712.7 275 675.2 297C637.7 319 600.3 345 562.8 336C525.3 327 487.7 283 450.2 270C412.7 257 375.3 275 337.8 299C300.3 323 262.7 353 225.2 355C187.7 357 150.3 331 112.8 308C75.3 285 37.7 265 18.8 255L0 245Z" fill="#f8f9fc"></path><path d="M0 373L18.8 379C37.7 385 75.3 397 112.8 412C150.3 427 187.7 445 225.2 446C262.7 447 300.3 431 337.8 414C375.3 397 412.7 379 450.2 387C487.7 395 525.3 429 562.8 444C600.3 459 637.7 455 675.2 445C712.7 435 750.3 419 787.8 416C825.3 413 862.7 423 881.3 428L900 433L900 419L881.3 409C862.7 399 825.3 379 787.8 375C750.3 371 712.7 383 675.2 395C637.7 407 600.3 419 562.8 405C525.3 391 487.7 351 450.2 342C412.7 333 375.3 355 337.8 372C300.3 389 262.7 401 225.2 400C187.7 399 150.3 385 112.8 371C75.3 357 37.7 343 18.8 336L0 329Z" fill="#f8f9fc"></path><path d="M0 451L18.8 456C37.7 461 75.3 471 112.8 476C150.3 481 187.7 481 225.2 483C262.7 485 300.3 489 337.8 477C375.3 465 412.7 437 450.2 436C487.7 435 525.3 461 562.8 470C600.3 479 637.7 471 675.2 460C712.7 449 750.3 435 787.8 443C825.3 451 862.7 481 881.3 496L900 511L900 431L881.3 426C862.7 421 825.3 411 787.8 414C750.3 417 712.7 433 675.2 443C637.7 453 600.3 457 562.8 442C525.3 427 487.7 393 450.2 385C412.7 377 375.3 395 337.8 412C300.3 429 262.7 445 225.2 444C187.7 443 150.3 425 112.8 410C75.3 395 37.7 383 18.8 377L0 371Z" fill="#f6f7fb"></path><path d="M0 481L18.8 485C37.7 489 75.3 497 112.8 508C150.3 519 187.7 533 225.2 544C262.7 555 300.3 563 337.8 552C375.3 541 412.7 511 450.2 510C487.7 509 525.3 537 562.8 548C600.3 559 637.7 553 675.2 535C712.7 517 750.3 487 787.8 491C825.3 495 862.7 533 881.3 552L900 571L900 509L881.3 494C862.7 479 825.3 449 787.8 441C750.3 433 712.7 447 675.2 458C637.7 469 600.3 477 562.8 468C525.3 459 487.7 433 450.2 434C412.7 435 375.3 463 337.8 475C300.3 487 262.7 483 225.2 481C187.7 479 150.3 479 112.8 474C75.3 469 37.7 459 18.8 454L0 449Z" fill="#eff0f7"></path><path d="M0 601L18.8 601C37.7 601 75.3 601 112.8 601C150.3 601 187.7 601 225.2 601C262.7 601 300.3 601 337.8 601C375.3 601 412.7 601 450.2 601C487.7 601 525.3 601 562.8 601C600.3 601 637.7 601 675.2 601C712.7 601 750.3 601 787.8 601C825.3 601 862.7 601 881.3 601L900 601L900 569L881.3 550C862.7 531 825.3 493 787.8 489C750.3 485 712.7 515 675.2 533C637.7 551 600.3 557 562.8 546C525.3 535 487.7 507 450.2 508C412.7 509 375.3 539 337.8 550C300.3 561 262.7 553 225.2 542C187.7 531 150.3 517 112.8 506C75.3 495 37.7 487 18.8 483L0 479Z" fill="#dfe2ef"></path></svg>