<svg id="visual" viewBox="0 0 900 600" width="900" height="600" xmlns="http://www.w3.org/2000/svg" xmlns:xlink="http://www.w3.org/1999/xlink" version="1.1"><path d="M0 61L11.5 62C23 63 46 65 69 63C92 61 115 55 138.2 49C161.3 43 184.7 37 207.8 35C231 33 254 35 277 35C300 35 323 33 346 37C369 41 392 51 415.2 58C438.3 65 461.7 69 484.8 65C508 61 531 49 554 43C577 37 600 37 623 36C646 35 669 33 692.2 37C715.3 41 738.7 51 761.8 58C785 65 808 69 831 70C854 71 877 69 888.5 68L900 67L900 0L888.5 0C877 0 854 0 831 0C808 0 785 0 761.8 0C738.7 0 715.3 0 692.2 0C669 0 646 0 623 0C600 0 577 0 554 0C531 0 508 0 484.8 0C461.7 0 438.3 0 415.2 0C392 0 369 0 346 0C323 0 300 0 277 0C254 0 231 0 207.8 0C184.7 0 161.3 0 138.2 0C115 0 92 0 69 0C46 0 23 0 11.5 0L0 0Z" fill="#dfe2ef"></path><path d="M0 199L11.5 193C23 187 46 175 69 179C92 183 115 203 138.2 196C161.3 189 184.7 155 207.8 144C231 133 254 145 277 157C300 169 323 181 346 195C369 209 392 225 415.2 231C438.3 237 461.7 233 484.8 217C508 201 531 173 554 165C577 157 600 169 623 170C646 171 669 161 692.2 155C715.3 149 738.7 147 761.8 146C785 145 808 145 831 162C854 179 877 213 888.5 230L900 247L900 65L888.5 66C877 67 854 69 831 68C808 67 785 63 761.8 56C738.7 49 715.3 39 692.2 35C669 31 646 33 623 34C600 35 577 35 554 41C531 47 508 59 484.8 63C461.7 67 438.3 63 415.2 56C392 49 369 39 346 35C323 31 300 33 277 33C254 33 231 31 207.8 33C184.7 35 161.3 41 138.2 47C115 53 92 59 69 61C46 63 23 61 11.5 60L0 59Z" fill="#f1f3f8"></path><path d="M0 301L11.5 315C23 329 46 357 69 363C92 369 115 353 138.2 345C161.3 337 184.7 337 207.8 341C231 345 254 353 277 349C300 345 323 329 346 332C369 335 392 357 415.2 361C438.3 365 461.7 351 484.8 343C508 335 531 333 554 333C577 333 600 335 623 333C646 331 669 325 692.2 317C715.3 309 738.7 299 761.8 300C785 301 808 313 831 325C854 337 877 349 888.5 355L900 361L900 245L888.5 228C877 211 854 177 831 160C808 143 785 143 761.8 144C738.7 145 715.3 147 692.2 153C669 159 646 169 623 168C600 167 577 155 554 163C531 171 508 199 484.8 215C461.7 231 438.3 235 415.2 229C392 223 369 207 346 193C323 179 300 167 277 155C254 143 231 131 207.8 142C184.7 153 161.3 187 138.2 194C115 201 92 181 69 177C46 173 23 185 11.5 191L0 197Z" fill="#f7f8fb"></path><path d="M0 355L11.5 365C23 375 46 395 69 402C92 409 115 403 138.2 395C161.3 387 184.7 377 207.8 378C231 379 254 391 277 390C300 389 323 375 346 379C369 383 392 405 415.2 408C438.3 411 461.7 395 484.8 389C508 383 531 387 554 389C577 391 600 391 623 389C646 387 669 383 692.2 376C715.3 369 738.7 359 761.8 355C785 351 808 353 831 361C854 369 877 383 888.5 390L900 397L900 359L888.5 353C877 347 854 335 831 323C808 311 785 299 761.8 298C738.7 297 715.3 307 692.2 315C669 323 646 329 623 331C600 333 577 331 554 331C531 331 508 333 484.8 341C461.7 349 438.3 363 415.2 359C392 355 369 333 346 330C323 327 300 343 277 347C254 351 231 343 207.8 339C184.7 335 161.3 335 138.2 343C115 351 92 367 69 361C46 355 23 327 11.5 313L0 299Z" fill="#f8f9fc"></path><path d="M0 415L11.5 425C23 435 46 455 69 463C92 471 115 467 138.2 456C161.3 445 184.7 427 207.8 428C231 429 254 449 277 447C300 445 323 421 346 421C369 421 392 445 415.2 448C438.3 451 461.7 433 484.8 431C508 429 531 443 554 451C577 459 600 461 623 456C646 451 669 439 692.2 433C715.3 427 738.7 427 761.8 422C785 417 808 407 831 409C854 411 877 425 888.5 432L900 439L900 395L888.5 388C877 381 854 367 831 359C808 351 785 349 761.8 353C738.7 357 715.3 367 692.2 374C669 381 646 385 623 387C600 389 577 389 554 387C531 385 508 381 484.8 387C461.7 393 438.3 409 415.2 406C392 403 369 381 346 377C323 373 300 387 277 388C254 389 231 377 207.8 376C184.7 375 161.3 385 138.2 393C115 401 92 407 69 400C46 393 23 373 11.5 363L0 353Z" fill="#f7f8fb"></path><path d="M0 535L11.5 535C23 535 46 535 69 531C92 527 115 519 138.2 517C161.3 515 184.7 519 207.8 524C231 529 254 535 277 531C300 527 323 513 346 512C369 511 392 523 415.2 524C438.3 525 461.7 515 484.8 519C508 523 531 541 554 546C577 551 600 543 623 535C646 527 669 519 692.2 516C715.3 513 738.7 515 761.8 517C785 519 808 521 831 526C854 531 877 539 888.5 543L900 547L900 437L888.5 430C877 423 854 409 831 407C808 405 785 415 761.8 420C738.7 425 715.3 425 692.2 431C669 437 646 449 623 454C600 459 577 457 554 449C531 441 508 427 484.8 429C461.7 431 438.3 449 415.2 446C392 443 369 419 346 419C323 419 300 443 277 445C254 447 231 427 207.8 426C184.7 425 161.3 443 138.2 454C115 465 92 469 69 461C46 453 23 433 11.5 423L0 413Z" fill="#f1f3f8"></path><path d="M0 601L11.5 601C23 601 46 601 69 601C92 601 115 601 138.2 601C161.3 601 184.7 601 207.8 601C231 601 254 601 277 601C300 601 323 601 346 601C369 601 392 601 415.2 601C438.3 601 461.7 601 484.8 601C508 601 531 601 554 601C577 601 600 601 623 601C646 601 669 601 692.2 601C715.3 601 738.7 601 761.8 601C785 601 808 601 831 601C854 601 877 601 888.5 601L900 601L900 545L888.5 541C877 537 854 529 831 524C808 519 785 517 761.8 515C738.7 513 715.3 511 692.2 514C669 517 646 525 623 533C600 541 577 549 554 544C531 539 508 521 484.8 517C461.7 513 438.3 523 415.2 522C392 521 369 509 346 510C323 511 300 525 277 529C254 533 231 527 207.8 522C184.7 517 161.3 513 138.2 515C115 517 92 525 69 529C46 533 23 533 11.5 533L0 533Z" fill="#dfe2ef"></path></svg>