<svg id="visual" viewBox="0 0 900 600" width="900" height="600" xmlns="http://www.w3.org/2000/svg" xmlns:xlink="http://www.w3.org/1999/xlink" version="1.1"><path d="M0 13L30 19C60 25 120 37 180 37C240 37 300 25 360 23C420 21 480 29 540 31C600 33 660 29 720 25C780 21 840 17 870 15L900 13L900 0L870 0C840 0 780 0 720 0C660 0 600 0 540 0C480 0 420 0 360 0C300 0 240 0 180 0C120 0 60 0 30 0L0 0Z" fill="#f8f9fc"></path><path d="M0 49L30 61C60 73 120 97 180 101C240 105 300 89 360 79C420 69 480 65 540 64C600 63 660 65 720 60C780 55 840 43 870 37L900 31L900 11L870 13C840 15 780 19 720 23C660 27 600 31 540 29C480 27 420 19 360 21C300 23 240 35 180 35C120 35 60 23 30 17L0 11Z" fill="#f7f8fc"></path><path d="M0 85L30 93C60 101 120 117 180 117C240 117 300 101 360 97C420 93 480 101 540 104C600 107 660 105 720 98C780 91 840 79 870 73L900 67L900 29L870 35C840 41 780 53 720 58C660 63 600 61 540 62C480 63 420 67 360 77C300 87 240 103 180 99C120 95 60 71 30 59L0 47Z" fill="#f6f8fb"></path><path d="M0 181L30 178C60 175 120 169 180 156C240 143 300 123 360 127C420 131 480 159 540 169C600 179 660 171 720 166C780 161 840 159 870 158L900 157L900 65L870 71C840 77 780 89 720 96C660 103 600 105 540 102C480 99 420 91 360 95C300 99 240 115 180 115C120 115 60 99 30 91L0 83Z" fill="#f6f7fb"></path><path d="M0 217L30 218C60 219 120 221 180 206C240 191 300 159 360 161C420 163 480 199 540 210C600 221 660 207 720 196C780 185 840 177 870 173L900 169L900 155L870 156C840 157 780 159 720 164C660 169 600 177 540 167C480 157 420 129 360 125C300 121 240 141 180 154C120 167 60 173 30 176L0 179Z" fill="#f5f6fa"></path><path d="M0 259L30 261C60 263 120 267 180 258C240 249 300 227 360 243C420 259 480 313 540 331C600 349 660 331 720 303C780 275 840 237 870 218L900 199L900 167L870 171C840 175 780 183 720 194C660 205 600 219 540 208C480 197 420 161 360 159C300 157 240 189 180 204C120 219 60 217 30 216L0 215Z" fill="#eff1f7"></path><path d="M0 385L30 395C60 405 120 425 180 442C240 459 300 473 360 482C420 491 480 495 540 473C600 451 660 403 720 371C780 339 840 323 870 315L900 307L900 197L870 216C840 235 780 273 720 301C660 329 600 347 540 329C480 311 420 257 360 241C300 225 240 247 180 256C120 265 60 261 30 259L0 257Z" fill="#eaecf5"></path><path d="M0 439L30 444C60 449 120 459 180 474C240 489 300 509 360 519C420 529 480 529 540 514C600 499 660 469 720 438C780 407 840 375 870 359L900 343L900 305L870 313C840 321 780 337 720 369C660 401 600 449 540 471C480 493 420 489 360 480C300 471 240 457 180 440C120 423 60 403 30 393L0 383Z" fill="#e4e7f2"></path><path d="M0 601L30 601C60 601 120 601 180 601C240 601 300 601 360 601C420 601 480 601 540 601C600 601 660 601 720 601C780 601 840 601 870 601L900 601L900 341L870 357C840 373 780 405 720 436C660 467 600 497 540 512C480 527 420 527 360 517C300 507 240 487 180 472C120 457 60 447 30 442L0 437Z" fill="#dfe2ef"></path></svg>