<svg id="visual" viewBox="0 0 900 600" width="900" height="600" xmlns="http://www.w3.org/2000/svg" xmlns:xlink="http://www.w3.org/1999/xlink" version="1.1"><path d="M674 600L659 587.5C644 575 614 550 599 525C584 500 584 475 615.5 450C647 425 710 400 732.5 375C755 350 737 325 716 300C695 275 671 250 684.5 225C698 200 749 175 767 150C785 125 770 100 755 75C740 50 725 25 717.5 12.5L710 0L900 0L900 12.5C900 25 900 50 900 75C900 100 900 125 900 150C900 175 900 200 900 225C900 250 900 275 900 300C900 325 900 350 900 375C900 400 900 425 900 450C900 475 900 500 900 525C900 550 900 575 900 587.5L900 600Z" fill="#dfe2ef"></path><path d="M602 600L590 587.5C578 575 554 550 516.5 525C479 500 428 475 429.5 450C431 425 485 400 521 375C557 350 575 325 554 300C533 275 473 250 464 225C455 200 497 175 525.5 150C554 125 569 100 554 75C539 50 494 25 471.5 12.5L449 0L711 0L718.5 12.5C726 25 741 50 756 75C771 100 786 125 768 150C750 175 699 200 685.5 225C672 250 696 275 717 300C738 325 756 350 733.5 375C711 400 648 425 616.5 450C585 475 585 500 600 525C615 550 645 575 660 587.5L675 600Z" fill="#eff0f7"></path><path d="M530 600L515 587.5C500 575 470 550 435.5 525C401 500 362 475 365 450C368 425 413 400 449 375C485 350 512 325 492.5 300C473 275 407 250 393.5 225C380 200 419 175 452 150C485 125 512 100 503 75C494 50 449 25 426.5 12.5L404 0L450 0L472.5 12.5C495 25 540 50 555 75C570 100 555 125 526.5 150C498 175 456 200 465 225C474 250 534 275 555 300C576 325 558 350 522 375C486 400 432 425 430.5 450C429 475 480 500 517.5 525C555 550 579 575 591 587.5L603 600Z" fill="#f6f7fb"></path><path d="M404 600L393.5 587.5C383 575 362 550 341 525C320 500 299 475 297.5 450C296 425 314 400 339.5 375C365 350 398 325 384.5 300C371 275 311 250 290 225C269 200 287 175 305 150C323 125 341 100 335 75C329 50 299 25 284 12.5L269 0L405 0L427.5 12.5C450 25 495 50 504 75C513 100 486 125 453 150C420 175 381 200 394.5 225C408 250 474 275 493.5 300C513 325 486 350 450 375C414 400 369 425 366 450C363 475 402 500 436.5 525C471 550 501 575 516 587.5L531 600Z" fill="#f8f9fc"></path><path d="M341 600L332 587.5C323 575 305 550 282.5 525C260 500 233 475 231.5 450C230 425 254 400 279.5 375C305 350 332 325 320 300C308 275 257 250 234.5 225C212 200 218 175 233 150C248 125 272 100 276.5 75C281 50 266 25 258.5 12.5L251 0L270 0L285 12.5C300 25 330 50 336 75C342 100 324 125 306 150C288 175 270 200 291 225C312 250 372 275 385.5 300C399 325 366 350 340.5 375C315 400 297 425 298.5 450C300 475 321 500 342 525C363 550 384 575 394.5 587.5L405 600Z" fill="#f8f9fc"></path><path d="M224 600L216.5 587.5C209 575 194 550 186.5 525C179 500 179 475 176 450C173 425 167 400 185 375C203 350 245 325 246.5 300C248 275 209 250 195.5 225C182 200 194 175 210.5 150C227 125 248 100 236 75C224 50 179 25 156.5 12.5L134 0L252 0L259.5 12.5C267 25 282 50 277.5 75C273 100 249 125 234 150C219 175 213 200 235.5 225C258 250 309 275 321 300C333 325 306 350 280.5 375C255 400 231 425 232.5 450C234 475 261 500 283.5 525C306 550 324 575 333 587.5L342 600Z" fill="#f6f7fb"></path><path d="M179 600L173 587.5C167 575 155 550 138.5 525C122 500 101 475 84.5 450C68 425 56 400 72.5 375C89 350 134 325 135.5 300C137 275 95 250 78.5 225C62 200 71 175 98 150C125 125 170 100 164 75C158 50 101 25 72.5 12.5L44 0L135 0L157.5 12.5C180 25 225 50 237 75C249 100 228 125 211.5 150C195 175 183 200 196.5 225C210 250 249 275 247.5 300C246 325 204 350 186 375C168 400 174 425 177 450C180 475 180 500 187.5 525C195 550 210 575 217.5 587.5L225 600Z" fill="#eff0f7"></path><path d="M0 600L0 587.5C0 575 0 550 0 525C0 500 0 475 0 450C0 425 0 400 0 375C0 350 0 325 0 300C0 275 0 250 0 225C0 200 0 175 0 150C0 125 0 100 0 75C0 50 0 25 0 12.5L0 0L45 0L73.5 12.5C102 25 159 50 165 75C171 100 126 125 99 150C72 175 63 200 79.5 225C96 250 138 275 136.5 300C135 325 90 350 73.5 375C57 400 69 425 85.5 450C102 475 123 500 139.5 525C156 550 168 575 174 587.5L180 600Z" fill="#dfe2ef"></path></svg>