<svg id="visual" viewBox="0 0 900 600" width="900" height="600" xmlns="http://www.w3.org/2000/svg" xmlns:xlink="http://www.w3.org/1999/xlink" version="1.1"><rect x="0" y="0" width="900" height="600" fill="#FFFFFF"></rect><path d="M0 385L12.5 387.8C25 390.7 50 396.3 75 384C100 371.7 125 341.3 150 356.7C175 372 200 433 225 432.5C250 432 275 370 300 341.3C325 312.7 350 317.3 375 340.7C400 364 425 406 450 428.7C475 451.3 500 454.7 525 446.5C550 438.3 575 418.7 600 405.3C625 392 650 385 675 379C700 373 725 368 750 385.7C775 403.3 800 443.7 825 433.2C850 422.7 875 361.3 887.5 330.7L900 300L900 601L887.5 601C875 601 850 601 825 601C800 601 775 601 750 601C725 601 700 601 675 601C650 601 625 601 600 601C575 601 550 601 525 601C500 601 475 601 450 601C425 601 400 601 375 601C350 601 325 601 300 601C275 601 250 601 225 601C200 601 175 601 150 601C125 601 100 601 75 601C50 601 25 601 12.5 601L0 601Z" fill="#CCCCCC" stroke-linecap="round" stroke-linejoin="miter"></path></svg>